<?xml version="1.0" encoding="utf-8"?>
<!-- Generator: Adobe Illustrator 15.0.0, SVG Export Plug-In . SVG Version: 6.00 Build 0)  -->
<!DOCTYPE svg PUBLIC "-//W3C//DTD SVG 1.1//EN" "http://www.w3.org/Graphics/SVG/1.1/DTD/svg11.dtd">
<svg version="1.1" xmlns="http://www.w3.org/2000/svg" xmlns:xlink="http://www.w3.org/1999/xlink" x="0px" y="0px" width="743.1px"
	 height="891.1px" viewBox="0 0 743.1 891.1" enable-background="new 0 0 743.1 891.1" xml:space="preserve">
<g id="Layer_6">
	<g>
		<g>
			<g>
				<path fill="#FF4504" d="M125.3,732.7H47v98.6h21.3v-31.7c0.1,0.1,0.4,0.1,0.4,0.1c0-0.6-0.1-0.8-0.4-0.8l57.1-0.1
					c11.3,0,20.4-9.2,20.4-20.3V753C145.8,741.8,136.6,732.7,125.3,732.7z M124.2,777.4h-56v-23.5h56V777.4z M152.2,746.8h21v-21.1
					h-21V746.8z M152.2,831.3h21v-79.6h-21V831.3z M262.8,802.1v-30.5c0-10.8-8.9-19.9-19.9-19.9H202c-10.8,0-19.9,9.1-19.9,19.9
					v39.8c0,10.8,9.1,19.9,19.9,19.9h60.8v-21h-59.7v-8.2H262.8z M203.1,772.7h38.7v11h-38.7V772.7z"/>
			</g>
		</g>
		<g>
			<path fill="#D8A361" d="M387.5,747.3v-14.8h-80.7c-9.9,0-17.8,8-17.8,17.8v63.1c0,9.9,8,17.8,17.8,17.8h80.7v-14.8h-80.7
				c-1.6,0-3-1.4-3-3v-63.1c0-1.6,1.4-3,3-3H387.5z"/>
			<path fill="#D8A361" d="M416.3,751.7c-9.9,0-17.8,8-17.8,17.8v43.9l0,0v17.8h14.8v-61.7c0-1.6,1.4-3,3-3h44.4v-14.8H416.3z"/>
			<path fill="#D8A361" d="M532.2,751.7v61.7c0,1.6-1.4,3-3,3h-45.3c-1.6,0-3-1.4-3-3v-61.7H466v61.7c0,9.9,8,17.8,17.8,17.8h45.3
				c9.9,0,17.8-8,17.8-17.8v-61.7H532.2z"/>
			<path fill="#D8A361" d="M637.5,769.6c0-9.9-8-17.8-17.8-17.8h-45.3c-9.9,0-17.8,8-17.8,17.8v11.5c0,9.9,8,17.8,17.8,17.8h45.3
				c1.6,0,3,1.4,3,3v11.5c0,1.6-1.4,3-3,3h-45.3c-1.6,0-3-1.4-3-3v-3h-14.8v3c0,9.9,8,17.8,17.8,17.8h45.3c9.9,0,17.8-8,17.8-17.8
				v-11.5c0-9.9-8-17.8-17.8-17.8h-45.3c-1.6,0-3-1.4-3-3v-11.5c0-1.6,1.4-3,3-3h45.3c1.6,0,3,1.4,3,3v3h14.8V769.6z"/>
			<path fill="#D8A361" d="M696.1,766.5v-14.8h-32.7v-26.1h-14.8v43.9l0,0v43.9c0,9.9,8,17.8,17.8,17.8h29.6v-14.8h-29.6
				c-1.6,0-3-1.4-3-3v-46.9H696.1z"/>
		</g>
	</g>
</g>
<g id="Layer_1">
	<g>
		<g>
			<path fill="#E6AE67" d="M149,174.8c14.6-4.1,29.9-19.4,34.1-34.1c4.1-14.6,19.9-26.1,35.1-25.5c15.2,0.6,34.5-9.2,42.9-21.9
				c8.4-12.6,27-18.7,41.2-13.4c14.2,5.3,35.7,1.9,47.6-7.5c11.9-9.4,31.4-9.4,43.4,0c11.9,9.4,33.3,12.8,47.6,7.5
				c14.2-5.3,32.8,0.8,41.2,13.4c8.4,12.6,27.7,22.5,42.9,21.9c15.2-0.6,31,10.9,35.1,25.5c4.1,14.6,19.4,29.9,34.1,34.1
				c14.6,4.1,26.1,19.9,25.5,35.1c-0.6,15.2,9.2,34.5,21.9,42.9c12.6,8.4,18.7,27,13.4,41.2c-5.3,14.2-1.9,35.7,7.5,47.6
				c9.4,11.9,9.4,31.4,0,43.3c-9.4,11.9-12.8,33.3-7.5,47.6c5.3,14.2-0.8,32.8-13.4,41.2c-12.6,8.4-22.5,27.7-21.9,42.9
				c0.6,15.2-10.9,31-25.5,35.1c-14.6,4.1-30,19.4-34.1,34.1c-4.1,14.6-19.9,26.1-35.1,25.5c-15.2-0.6-34.5,9.2-42.9,21.9
				c-8.4,12.6-27,18.7-41.2,13.4c-14.2-5.3-35.6-1.9-47.6,7.5c-11.9,9.4-31.4,9.4-43.4,0c-11.9-9.4-33.3-12.8-47.6-7.5
				c-14.2,5.3-32.8-0.8-41.2-13.4c-8.4-12.6-27.7-22.5-42.9-21.9c-15.2,0.6-31-10.9-35.1-25.5c-4.1-14.6-19.4-29.9-34.1-34.1
				c-14.6-4.1-26.1-19.9-25.5-35.1c0.6-15.2-9.2-34.5-21.9-42.9c-12.6-8.4-18.7-27-13.4-41.2c5.3-14.2,1.9-35.6-7.5-47.6
				c-9.4-11.9-9.4-31.4,0-43.4c9.4-11.9,12.8-33.3,7.5-47.6c-5.3-14.2,0.8-32.8,13.4-41.2c12.6-8.4,22.5-27.7,21.9-42.9
				C122.9,194.7,134.4,178.9,149,174.8L149,174.8z M149,174.8"/>
		</g>
		<path fill="#FF4504" d="M535.8,199c91.3,91.3,91.3,239.3,0,330.6c-91.3,91.3-239.3,91.3-330.6,0c-91.3-91.3-91.3-239.3,0-330.6
			C296.5,107.7,444.5,107.7,535.8,199L535.8,199z M535.8,199"/>
		<g>
			<g>
				<path fill="#997443" d="M539.5,188.2"/>
				<polygon fill="#C53502" points="595.7,397.4 156.8,397.4 156.8,413.2 595.7,413.2 				"/>
				<polygon fill="#C53502" points="493.6,534.8 259.1,534.8 259.1,550.5 493.6,550.5 				"/>
				<polygon fill="#C53502" points="589.7,259.9 161.2,259.9 161.2,275.7 589.7,275.7 				"/>
				<polygon fill="#C53502" points="420.3,600.2 420.3,126 317.7,126 317.7,600.2 				"/>
				<polygon fill="#C53502" points="557.7,505.1 557.7,213.9 485.5,150.4 455.1,150.4 455.1,581.6 474.9,581.6 				"/>
				<polygon fill="#C53502" points="282.9,581.6 282.9,138.1 180.3,219.3 180.3,491.8 268.7,581.6 				"/>
				<polygon fill="#C53502" points="557.7,505.1 557.7,213.9 485.5,150.4 455.1,150.4 455.1,581.6 474.9,581.6 				"/>
			</g>
			<path fill="#E6AE67" d="M144.9,397.4h464c5-23.3,6.1-47.2,3.3-70.7l-470.7,0C138.8,350.2,139.9,374.1,144.9,397.4L144.9,397.4z
				 M203.4,504.8c11.6,11.6,24.2,21.6,37.4,30l272.1,0c13.3-8.4,25.9-18.4,37.4-30c12.5-12.5,23.2-26.3,32-40.8l-411,0
				C180.2,478.5,190.8,492.3,203.4,504.8L203.4,504.8z M539.9,189.3H213.8c-3.5,3.1-7,6.4-10.4,9.8c-18.2,18.2-32.5,38.9-42.9,61
				l432.7,0c-10.4-22.1-24.6-42.8-42.9-61C546.9,195.6,543.5,192.4,539.9,189.3L539.9,189.3z M539.9,189.3"/>
			<path fill="#AA6D33" d="M317.7,397.4l102.6,0v-70.7l-102.6,0L317.7,397.4z M282.9,189.3h-69.1c-3.5,3.1-7,6.4-10.4,9.8
				c-18,18-32.2,38.5-42.5,60.3v0.7l122.1,0L282.9,189.3z M544.7,189.3l-89.5,0V260l129,0l0-25c-8.2-12.7-17.9-24.8-29-36
				C551.7,195.6,548.2,192.4,544.7,189.3L544.7,189.3z M155.8,464c8.8,14.5,19.5,28.2,32,40.8c11.6,11.6,24.2,21.6,37.4,30l57.7,0
				l0-70.7H155.8z M455.1,534.8l60,0c13.3-8.4,25.9-18.4,37.4-30c11.2-11.2,20.8-23.2,29-36l0-4.8l-126.4,0L455.1,534.8z M317.7,464
				"/>
			<path fill="#E6AE67" d="M222.9,175.2c-10.1,10.1-19,20.9-26.6,32.3l0,302.2c7.7,11.4,16.5,22.2,26.6,32.3
				c13.5,13.5,28.4,24.8,44.1,34V141.2C251.3,150.4,236.4,161.7,222.9,175.2L222.9,175.2z M471,136.1l0,451.6
				c20.8-10.2,40.3-24,57.6-41.3c4.6-4.6,9-9.4,13.1-14.3l0-340.3c-4.1-4.9-8.5-9.7-13.1-14.3C511.4,160.1,491.8,146.3,471,136.1
				L471,136.1z M333.6,122.5l0,472.3c23.3,4.6,47.2,5.3,70.8,2.2l0-476.7C380.9,117.1,357,117.9,333.6,122.5L333.6,122.5z
				 M333.6,122.5"/>
			<rect x="196.3" y="310.7" fill="#AA6D33" width="70.7" height="102.6"/>
			<rect x="333.6" y="173.4" fill="#AA6D33" width="70.7" height="102.6"/>
			<rect x="471" y="310.7" fill="#AA6D33" width="70.7" height="102.6"/>
			<path fill="#E6AE67" d="M164.4,397.4h132c5-23.3,6.1-47.2,3.3-70.7l-138.7,0C158.3,350.2,159.4,374.1,164.4,397.4L164.4,397.4z"
				/>
			<path fill="#E6AE67" d="M440.4,397.4h132c5-23.3,6.1-47.2,3.3-70.7l-138.7,0C434.3,350.2,435.4,374.1,440.4,397.4L440.4,397.4z"
				/>
			<path fill="#E6AE67" d="M303,260h132c5-23.3,6.1-47.2,3.3-70.8l-138.7,0C296.9,212.8,298,236.8,303,260L303,260z"/>
			<rect x="333.6" y="448.2" fill="#AA6D33" width="70.7" height="102.6"/>
			<path fill="#E6AE67" d="M303,534.8h132c5-23.3,6.1-47.2,3.3-70.8l-138.7,0C296.9,487.6,298,511.6,303,534.8L303,534.8z"/>
		</g>
		<path fill="#8C440D" d="M612.3,304.2c10.5-23.9-1.4-47.2-21.2-55.6c4-20.6-7.6-43.6-34-48.9c-0.8-24.3-22.8-41.2-44.7-39.4
			c-6.2-22.1-30.5-35.2-52.9-27.6c-6.5-10.9-15.8-17.1-26.3-19.5c-14.3-3.2-22.5,0.3-31.8,5.3c-17.3-17.3-43.1-16.8-59.7,0
			c-8.8-4.8-17.1-8.6-31.9-5.3c-11,2.5-20.6,9.7-26.2,19.4c-22.3-7.5-46.7,5.4-53,27.7c-12.3-0.3-22.4,1.2-33.8,13
			c-6.3,6.7-10.4,15.7-10.9,26.4c-13.2,2.9-22.4,7.4-29.9,21.1c-4.7,8.9-6.1,18.4-4.1,27.7c-20.5,8.6-31.7,33-21.2,55.5
			c-18.6,13.8-22.2,40.5-7.2,59.1c-13.7,17-13.3,42.5,7.2,59c-10,20.7-0.6,46.4,21.2,55.6c-4.8,22.7,10.9,45.3,34,48.9
			c0.7,22.9,21.1,41.4,44.7,39.4c6.2,21.9,30.3,35.3,53,27.6c6.4,9.7,12.5,16.4,26.2,19.5c12.7,2.8,21.8,0.5,31.8-5.3
			c15.8,16.6,43.2,17.4,59.7,0c19.5,12.5,46.5,6.3,58.1-14.2c6,1.7,16.6,5.4,32.1-2.4c8.8-4.3,17.3-13,20.8-25.1
			c21,1.8,42.9-13,44.7-39.4c25.7-4.6,38.2-27.9,34-48.9c5.7-2.7,16.1-6.9,22.5-23.1c4.1-10.4,3.7-22.4-1.2-32.4
			c19.1-14.3,21.6-42,7.2-59.1C634.2,344.9,631.5,319,612.3,304.2z M597.7,337.8c-0.3,3.2-0.9,3.9-2.7,6.1
			c-2.8,3.5-7.4,9.2-7.3,19.3c-0.1,7.3,2.6,14.2,7.6,19.7c3.5,3.7,3,11.1-1.9,14.5c-12.4,8.3-16.5,24.9-9.4,38
			c1.5,2.7,1.2,5.9,0.4,7.7c-1.6,4-2.3,4.3-6,6c-5.5,2.6-11.8,6-15.8,14.2c-5.6,11.5-2.1,19.3-1.9,22.8c0.1,2.4-2.1,6.7-4.8,8.3
			c-4.8,2.9-13.7,0.7-22.8,11.2c-6.6,7.6-7,14.9-7.3,19.2c-0.2,2.9-0.2,3.6-2,6c-1.6,2.2-5,4.5-9.3,4.1
			c-14.1-1.8-27.7,6.4-32.1,21.9c-0.3,1.1-0.5,1.7-0.8,2.3c-0.8,1.4-2.7,3.4-4,4c-4.1,2-4.7,2-8.8,0.7c-4.5-1.3-12-3.5-21,0.1
			c-6.8,2.6-12.3,7.6-15.5,13.9c-2.7,5.2-9.8,6.8-14.8,3.3c-12.7-8.5-28.3-6.3-38.5,4.6c-4.7,5-11.8,4.1-15.3,0.2
			c-7.3-8.3-18.8-11.8-29.5-9c-9.4,2.6-10,7.4-17.8,5.7c-3.6-0.8-4-1.5-6.2-4.9c-2-3.2-5.1-7.9-10.8-11.4
			c-7.8-4.9-17.2-5.7-25.8-2.3c-6.2,2.3-12.2-2-13.3-6.9c-3.4-14.6-17.3-24.2-32.2-22.2c-5.5,0.6-11.1-3.6-11.3-9.7
			c-0.4-16.8-12.2-27.8-26-29.4c-5.8-0.7-10-6.7-8.6-12c3.8-14.5-4-29.5-18.2-34.7c-5.2-1.9-8.1-8.2-5.3-14
			c1.4-2.9,3.8-7.8,3.3-15.3c-0.9-21-18-20.5-17-31.3c0.3-3.2,0.9-3.9,2.7-6.1c2.8-3.5,7.4-9.2,7.3-19.3c0.2-14-8-18.1-9.5-23
			c-1.5-4.9,0.8-9.1,3.7-11.2c11.4-7.6,16.7-22.2,9.5-37.9c-1.2-2.5-1.4-3.1-1-6.1c0.4-2.9,2.5-6.4,6.2-7.8
			c14.2-5.3,22.1-20.2,18.3-34.6c-0.4-1.5-0.6-3.7,1-6.9c2.3-4,3.3-4.2,7.7-5.1c4.6-1,12.4-2.6,18.6-9.8
			c10.5-12.1,4.6-20.1,9.8-25.9c3.4-3.5,4.4-3.5,8.8-3.3c4.7,0.2,12.7,0.4,20.5-5.1c5.9-4.2,10.1-10.3,11.7-17.2
			c1.2-5.1,7.5-9,13.3-6.8c14,5.4,29.7-0.5,36.6-13.9c1.4-2.8,4.2-4.3,6.2-4.8c4.2-0.9,5.2-0.4,8.8,1.6c4,2.2,10.7,6,19.9,4.8
			c13.7-1.6,18.2-10.7,21.3-12c13.1-5.3,11.9,9.7,30.8,12c9.3,1.1,16-2.6,19.9-4.8c3.6-2,4.6-2.5,8.8-1.6c6.9,1.6,5.7,7.1,12.9,13.3
			c8.3,7.2,19.7,9.3,29.9,5.3c5.7-2.1,12.1,1.6,13.3,6.8c3.4,14.6,17.3,24.2,32.2,22.2c5.8-0.6,10.3,4,11.1,7.6
			c0.6,3.1-0.7,8.6,4.3,17.2c11.3,19.7,27.7,8.6,30.6,22.5c0.9,4.7-4,11.7,2.1,24.3c3.4,6.8,9.2,11.7,16,14.2
			c3.8,1.4,5.9,4.9,6.3,7.8c0.5,3,0.2,3.6-1,6.2c-1.8,4-4.9,10.6-2.6,20.4c3.2,13.7,12,15.7,14.9,20.5
			C597.5,333.9,597.8,336.8,597.7,337.8z"/>
	</g>
</g>
</svg>
