<?xml version="1.0" encoding="utf-8"?>
<!-- Generator: Adobe Illustrator 15.0.0, SVG Export Plug-In . SVG Version: 6.00 Build 0)  -->
<!DOCTYPE svg PUBLIC "-//W3C//DTD SVG 1.1//EN" "http://www.w3.org/Graphics/SVG/1.1/DTD/svg11.dtd">
<svg version="1.1" xmlns="http://www.w3.org/2000/svg" xmlns:xlink="http://www.w3.org/1999/xlink" x="0px" y="0px"
	 width="1050.1px" height="280.5px" viewBox="0 0 1050.1 280.5" enable-background="new 0 0 1050.1 280.5" xml:space="preserve">
<g id="Layer_6">
	<g>
		<g>
			<g>
				<path fill="#FF4504" d="M369.5,82.7h-89v112.1h24.2v-36c0.2,0.2,0.5,0.2,0.5,0.2c0-0.6-0.2-0.9-0.5-0.9l64.9-0.2
					c12.8,0,23.2-10.5,23.2-23.1v-29C392.8,93.1,382.3,82.7,369.5,82.7z M368.3,133.5h-63.6v-26.7h63.6V133.5z M400.1,98.7h23.9v-24
					h-23.9V98.7z M400.1,194.8h23.9v-90.4h-23.9V194.8z M525.7,161.6V127c0-12.3-10.1-22.6-22.6-22.6h-46.5
					c-12.3,0-22.6,10.3-22.6,22.6v45.2c0,12.3,10.3,22.6,22.6,22.6h69.1v-23.9h-67.8v-9.4H525.7z M457.9,128.2h44v12.5h-44V128.2z"
					/>
			</g>
		</g>
		<g>
			<path fill="#D8A361" d="M667.5,99.4V82.5h-91.7c-11.2,0-20.3,9-20.3,20.3v71.7c0,11.2,9,20.3,20.3,20.3h91.7V178h-91.7
				c-1.9,0-3.4-1.6-3.4-3.4v-71.7c0-1.9,1.6-3.4,3.4-3.4H667.5z"/>
			<path fill="#D8A361" d="M700.2,104.4c-11.2,0-20.3,9-20.3,20.3v49.9l0,0v20.3h16.8v-70.2c0-1.9,1.6-3.4,3.4-3.4h50.5v-16.8H700.2
				z"/>
			<path fill="#D8A361" d="M831.9,104.4v70.2c0,1.9-1.6,3.4-3.4,3.4h-51.5c-1.9,0-3.4-1.6-3.4-3.4v-70.2h-16.8v70.2
				c0,11.2,9,20.3,20.3,20.3h51.5c11.2,0,20.3-9,20.3-20.3v-70.2H831.9z"/>
			<path fill="#D8A361" d="M951.7,124.6c0-11.2-9-20.3-20.3-20.3H880c-11.2,0-20.3,9-20.3,20.3v13.1c0,11.2,9,20.3,20.3,20.3h51.4
				c1.9,0,3.4,1.6,3.4,3.4v13.1c0,1.9-1.6,3.4-3.4,3.4H880c-1.9,0-3.4-1.6-3.4-3.4v-3.4h-16.8v3.4c0,11.2,9,20.3,20.3,20.3h51.4
				c11.2,0,20.3-9,20.3-20.3v-13.1c0-11.2-9-20.3-20.3-20.3H880c-1.9,0-3.4-1.6-3.4-3.4v-13.1c0-1.9,1.6-3.4,3.4-3.4h51.4
				c1.9,0,3.4,1.6,3.4,3.4v3.4h16.8V124.6z"/>
			<path fill="#D8A361" d="M1018.3,121.2v-16.8h-37.1V74.7h-16.8v49.9l0,0v49.9c0,11.2,9,20.3,20.3,20.3h33.7V178h-33.7
				c-1.9,0-3.4-1.6-3.4-3.4v-53.3H1018.3z"/>
		</g>
	</g>
</g>
<g id="Layer_1">
	<g>
		<g>
			<path fill="#E6AE67" d="M57.8,78.4c5.1-1.4,10.4-6.7,11.8-11.8c1.4-5.1,6.9-9,12.1-8.8c5.3,0.2,11.9-3.2,14.9-7.6
				c2.9-4.4,9.3-6.5,14.3-4.6c4.9,1.8,12.4,0.6,16.5-2.6c4.1-3.3,10.9-3.3,15,0c4.1,3.3,11.5,4.4,16.5,2.6
				c4.9-1.8,11.4,0.3,14.3,4.6c2.9,4.4,9.6,7.8,14.9,7.6c5.3-0.2,10.7,3.8,12.1,8.8c1.4,5.1,6.7,10.4,11.8,11.8
				c5.1,1.4,9,6.9,8.8,12.1c-0.2,5.3,3.2,11.9,7.6,14.9c4.4,2.9,6.5,9.3,4.6,14.3c-1.8,4.9-0.6,12.4,2.6,16.5c3.3,4.1,3.3,10.9,0,15
				c-3.3,4.1-4.4,11.5-2.6,16.5c1.8,4.9-0.3,11.4-4.6,14.3c-4.4,2.9-7.8,9.6-7.6,14.9c0.2,5.3-3.8,10.7-8.8,12.1
				c-5.1,1.4-10.4,6.7-11.8,11.8c-1.4,5.1-6.9,9-12.1,8.8c-5.3-0.2-11.9,3.2-14.9,7.6c-2.9,4.4-9.3,6.5-14.3,4.6
				c-4.9-1.8-12.3-0.6-16.5,2.6c-4.1,3.3-10.9,3.3-15,0c-4.1-3.3-11.5-4.4-16.5-2.6c-4.9,1.8-11.4-0.3-14.3-4.6
				c-2.9-4.4-9.6-7.8-14.9-7.6c-5.3,0.2-10.7-3.8-12.1-8.8c-1.4-5.1-6.7-10.4-11.8-11.8c-5.1-1.4-9-6.9-8.8-12.1
				c0.2-5.3-3.2-11.9-7.6-14.9c-4.4-2.9-6.5-9.3-4.6-14.3c1.8-4.9,0.6-12.3-2.6-16.5c-3.3-4.1-3.3-10.9,0-15
				c3.3-4.1,4.4-11.5,2.6-16.5c-1.8-4.9,0.3-11.4,4.6-14.3c4.4-2.9,7.8-9.6,7.6-14.9C48.7,85.3,52.7,79.8,57.8,78.4L57.8,78.4z
				 M57.8,78.4"/>
		</g>
		<path fill="#FF4504" d="M191.7,86.7c31.6,31.6,31.6,82.9,0,114.5c-31.6,31.6-82.9,31.6-114.5,0s-31.6-82.9,0-114.5
			C108.9,55.1,160.1,55.1,191.7,86.7L191.7,86.7z M191.7,86.7"/>
		<g>
			<g>
				<path fill="#997443" d="M193,83"/>
				<rect x="60.4" y="155.5" fill="#C53502" width="152" height="5.5"/>
				<rect x="95.9" y="203.1" fill="#C53502" width="81.2" height="5.5"/>
				<rect x="62" y="107.9" fill="#C53502" width="148.4" height="5.5"/>
				<rect x="116.2" y="61.5" fill="#C53502" width="35.5" height="164.3"/>
				<polygon fill="#C53502" points="199.3,192.8 199.3,91.9 174.3,69.9 163.8,69.9 163.8,219.3 170.6,219.3 				"/>
				<polygon fill="#C53502" points="104.1,219.3 104.1,65.7 68.6,93.8 68.6,188.2 99.2,219.3 				"/>
				<polygon fill="#C53502" points="199.3,192.8 199.3,91.9 174.3,69.9 163.8,69.9 163.8,219.3 170.6,219.3 				"/>
			</g>
			<path fill="#E6AE67" d="M56.3,155.5H217c1.7-8.1,2.1-16.3,1.2-24.5l-163,0C54.2,139.1,54.6,147.4,56.3,155.5L56.3,155.5z
				 M76.6,192.7c4,4,8.4,7.5,13,10.4l94.2,0c4.6-2.9,9-6.4,13-10.4c4.3-4.3,8-9.1,11.1-14.1l-142.4,0
				C68.5,183.6,72.2,188.3,76.6,192.7L76.6,192.7z M193.1,83.4H80.2c-1.2,1.1-2.4,2.2-3.6,3.4c-6.3,6.3-11.3,13.5-14.9,21.1l149.9,0
				c-3.6-7.6-8.5-14.8-14.9-21.1C195.6,85.6,194.4,84.5,193.1,83.4L193.1,83.4z M193.1,83.4"/>
			<path fill="#AA6D33" d="M116.2,155.5l35.5,0V131h-35.5L116.2,155.5z M104.1,83.4H80.2c-1.2,1.1-2.4,2.2-3.6,3.4
				c-6.2,6.2-11.2,13.3-14.7,20.9v0.2l42.3,0L104.1,83.4z M194.8,83.4l-31,0v24.5l44.7,0l0-8.7c-2.8-4.4-6.2-8.6-10.1-12.5
				C197.2,85.6,196,84.5,194.8,83.4L194.8,83.4z M60.1,178.6c3.1,5,6.8,9.8,11.1,14.1c4,4,8.4,7.5,13,10.4l20,0l0-24.5H60.1z
				 M163.8,203.1h20.8c4.6-2.9,9-6.4,13-10.4c3.9-3.9,7.2-8,10.1-12.5l0-1.7h-43.8L163.8,203.1z M116.2,178.6"/>
			<path fill="#E6AE67" d="M83.3,78.5c-3.5,3.5-6.6,7.2-9.2,11.2l0,104.7c2.7,4,5.7,7.7,9.2,11.2c4.7,4.7,9.8,8.6,15.3,11.8V66.7
				C93.2,69.9,88,73.8,83.3,78.5L83.3,78.5z M169.3,65l0,156.4c7.2-3.5,14-8.3,20-14.3c1.6-1.6,3.1-3.3,4.5-5l0-117.9
				c-1.4-1.7-2.9-3.4-4.5-5C183.3,73.3,176.5,68.5,169.3,65L169.3,65z M121.7,60.3l0,163.6c8.1,1.6,16.4,1.9,24.5,0.8l0-165.1
				C138.1,58.4,129.8,58.7,121.7,60.3L121.7,60.3z M121.7,60.3"/>
			<rect x="74.1" y="125.5" fill="#AA6D33" width="24.5" height="35.5"/>
			<rect x="121.7" y="77.9" fill="#AA6D33" width="24.5" height="35.5"/>
			<rect x="169.3" y="125.5" fill="#AA6D33" width="24.5" height="35.5"/>
			<path fill="#E6AE67" d="M63.1,155.5h45.7c1.7-8.1,2.1-16.3,1.2-24.5l-48,0C61,139.1,61.4,147.4,63.1,155.5L63.1,155.5z"/>
			<path fill="#E6AE67" d="M158.7,155.5h45.7c1.7-8.1,2.1-16.3,1.2-24.5l-48,0C156.6,139.1,157,147.4,158.7,155.5L158.7,155.5z"/>
			<path fill="#E6AE67" d="M111.1,107.9h45.7c1.7-8.1,2.1-16.3,1.2-24.5l-48,0C109,91.6,109.4,99.8,111.1,107.9L111.1,107.9z"/>
			<rect x="121.7" y="173.1" fill="#AA6D33" width="24.5" height="35.5"/>
			<path fill="#E6AE67" d="M111.1,203.1h45.7c1.7-8.1,2.1-16.3,1.2-24.5l-48,0C109,186.7,109.4,195,111.1,203.1L111.1,203.1z"/>
		</g>
		<path fill="#8C440D" d="M218.2,123.2c3.6-8.3-0.5-16.4-7.4-19.3c1.4-7.2-2.6-15.1-11.8-16.9c-0.3-8.4-7.9-14.3-15.5-13.6
			c-2.2-7.6-10.6-12.2-18.3-9.6c-2.3-3.8-5.5-5.9-9.1-6.7c-4.9-1.1-7.8,0.1-11,1.9c-6-6-14.9-5.8-20.7,0c-3-1.7-5.9-3-11-1.8
			c-3.8,0.9-7.1,3.4-9.1,6.7c-7.7-2.6-16.2,1.9-18.3,9.6c-4.3-0.1-7.8,0.4-11.7,4.5c-2.2,2.3-3.6,5.4-3.8,9.1
			c-4.6,1-7.8,2.6-10.4,7.3c-1.6,3.1-2.1,6.4-1.4,9.6c-7.1,3-11,11.4-7.3,19.2c-6.4,4.8-7.7,14-2.5,20.5c-4.7,5.9-4.6,14.7,2.5,20.4
			c-3.5,7.2-0.2,16.1,7.4,19.3c-1.7,7.9,3.8,15.7,11.8,16.9c0.3,7.9,7.3,14.3,15.5,13.6c2.1,7.6,10.5,12.2,18.3,9.6
			c2.2,3.4,4.3,5.7,9.1,6.7c4.4,1,7.6,0.2,11-1.8c5.5,5.7,15,6,20.7,0c6.8,4.3,16.1,2.2,20.1-4.9c2.1,0.6,5.7,1.9,11.1-0.8
			c3.1-1.5,6-4.5,7.2-8.7c7.3,0.6,14.9-4.5,15.5-13.6c8.9-1.6,13.2-9.7,11.8-16.9c2-0.9,5.6-2.4,7.8-8c1.4-3.6,1.3-7.8-0.4-11.2
			c6.6-4.9,7.5-14.5,2.5-20.5C225.8,137.3,224.9,128.3,218.2,123.2z M213.2,134.9c-0.1,1.1-0.3,1.4-0.9,2.1c-1,1.2-2.6,3.2-2.5,6.7
			c0,2.5,0.9,4.9,2.6,6.8c1.2,1.3,1.1,3.8-0.6,5c-4.3,2.9-5.7,8.6-3.2,13.2c0.5,0.9,0.4,2,0.1,2.7c-0.5,1.4-0.8,1.5-2.1,2.1
			c-1.9,0.9-4.1,2.1-5.5,4.9c-1.9,4-0.7,6.7-0.7,7.9c0,0.8-0.7,2.3-1.7,2.9c-1.7,1-4.8,0.2-7.9,3.9c-2.3,2.6-2.4,5.2-2.5,6.7
			c-0.1,1-0.1,1.2-0.7,2.1c-0.6,0.8-1.7,1.6-3.2,1.4c-4.9-0.6-9.6,2.2-11.1,7.6c-0.1,0.4-0.2,0.6-0.3,0.8c-0.3,0.5-0.9,1.2-1.4,1.4
			c-1.4,0.7-1.6,0.7-3.1,0.3c-1.6-0.4-4.1-1.2-7.3,0c-2.3,0.9-4.2,2.6-5.4,4.8c-0.9,1.8-3.4,2.3-5.1,1.2c-4.4-2.9-9.8-2.2-13.3,1.6
			c-1.6,1.7-4.1,1.4-5.3,0.1c-2.5-2.9-6.5-4.1-10.2-3.1c-3.3,0.9-3.5,2.6-6.2,2c-1.3-0.3-1.4-0.5-2.2-1.7c-0.7-1.1-1.8-2.7-3.7-3.9
			c-2.7-1.7-5.9-2-9-0.8c-2.1,0.8-4.2-0.7-4.6-2.4c-1.2-5.1-6-8.4-11.2-7.7c-1.9,0.2-3.8-1.3-3.9-3.4c-0.1-5.8-4.2-9.6-9-10.2
			c-2-0.2-3.5-2.3-3-4.2c1.3-5-1.4-10.2-6.3-12c-1.8-0.7-2.8-2.8-1.8-4.8c0.5-1,1.3-2.7,1.2-5.3c-0.3-7.3-6.2-7.1-5.9-10.9
			c0.1-1.1,0.3-1.4,0.9-2.1c1-1.2,2.6-3.2,2.5-6.7c0.1-4.8-2.8-6.3-3.3-8c-0.5-1.7,0.3-3.2,1.3-3.9c4-2.6,5.8-7.7,3.3-13.1
			c-0.4-0.9-0.5-1.1-0.3-2.1c0.1-1,0.9-2.2,2.2-2.7c4.9-1.8,7.6-7,6.3-12c-0.1-0.5-0.2-1.3,0.3-2.4c0.8-1.4,1.2-1.5,2.7-1.8
			c1.6-0.3,4.3-0.9,6.4-3.4c3.7-4.2,1.6-7,3.4-9c1.2-1.2,1.5-1.2,3.1-1.2c1.6,0.1,4.4,0.2,7.1-1.8c2.1-1.5,3.5-3.6,4.1-6
			c0.4-1.8,2.6-3.1,4.6-2.4c4.9,1.9,10.3-0.2,12.7-4.8c0.5-1,1.5-1.5,2.2-1.7c1.4-0.3,1.8-0.1,3,0.6c1.4,0.8,3.7,2.1,6.9,1.7
			c4.7-0.6,6.3-3.7,7.4-4.1c4.5-1.8,4.1,3.4,10.7,4.1c3.2,0.4,5.5-0.9,6.9-1.7c1.2-0.7,1.6-0.9,3-0.6c2.4,0.6,2,2.4,4.5,4.6
			c2.9,2.5,6.8,3.2,10.4,1.8c2-0.7,4.2,0.6,4.6,2.4c1.2,5.1,6,8.4,11.2,7.7c2-0.2,3.6,1.4,3.8,2.6c0.2,1.1-0.3,3,1.5,6
			c3.9,6.8,9.6,3,10.6,7.8c0.3,1.6-1.4,4,0.7,8.4c1.2,2.3,3.2,4,5.5,4.9c1.3,0.5,2,1.7,2.2,2.7c0.2,1.1,0.1,1.3-0.4,2.2
			c-0.6,1.4-1.7,3.7-0.9,7.1c1.1,4.7,4.2,5.4,5.2,7.1C213.1,133.5,213.2,134.5,213.2,134.9z"/>
	</g>
</g>
</svg>
