<?xml version="1.0" encoding="UTF-8"?>
<svg width="750px" height="200px" viewBox="0 0 750 200" version="1.1" xmlns="http://www.w3.org/2000/svg" xmlns:xlink="http://www.w3.org/1999/xlink">
    <title>PieCrust</title>
    <desc>PieCrust logo</desc>
    <defs></defs>
    <g id="Page-1" stroke="none" stroke-width="1" fill="none" fill-rule="evenodd">
        <g id="logo">
            <path d="M88.4999375,180.499979 C90.6666021,185.666641 85.3332739,190.833303 80.4999452,191.166636 C78.4999471,191.333302 76.499949,190.49997 74.9999504,188.499972 C69.1666226,179.99998 63.3332949,149.500009 61.1666303,131.33336 C48.3333092,127.666697 35.8333211,121.166703 26.9999962,111.333379 C22.5000005,106.50005 18.6666708,97.6667252 18.6666708,92.1667304 C18.6666708,85.1667371 24.1666656,81.1667409 29.6666603,81.1667409 C33.833323,81.1667409 37.6666527,84.0000715 37.4999862,90.5000653 C37.1666532,97.0000591 31.9999914,107.666716 45.6666451,117.666706 C49.1666417,120.33337 54.3333035,123.000034 60.4999642,125.000032 C60.1666312,119.500038 59.8332982,113.66671 59.8332982,107.833382 C59.8332982,84.500071 63.6666279,59.0000954 77.833281,38.1667819 C88.8332705,22.0001307 104.166589,11.5001407 125.333236,10.0001421 C155.333207,7.66681099 176.833187,31.6667881 177.333186,61.0000935 C178.166519,106.50005 139.333222,132.166692 92.8332667,135.000023 C88.1666045,135.333356 82.9999428,135.166689 77.499948,134.500023 C80.1666121,150.833341 85.4999404,173.499986 88.4999375,180.499979 Z M127.9999,15.5001369 C89.9999361,17.0001354 75.3332834,70.5000844 75.3332834,104.833385 C75.3332834,112.666711 75.8332829,120.500037 76.499949,128.500029 C81.8332772,129.000029 87.4999385,129.166695 93.4999328,128.666696 C135.333226,125.666698 161.666534,94.5000615 160.999868,59.3334284 C160.499869,39.1667809 149.833212,14.6668043 127.9999,15.5001369 Z" id="Combined-Shape" fill="#FF6B39"></path>
            <path d="M197.833319,95.6667271 C194.499989,109.166714 190.499993,153.333339 203.49998,152.166673 C212.333305,151.333341 221.833296,124.1667 224.49996,111.500045 C224.99996,109.333381 225.999959,108.833381 226.833291,109.000048 C227.83329,109.333381 228.33329,110.666713 227.999957,113.000044 C225.666626,130.500027 215.666635,161.333331 200.16665,163.499996 C173.000009,166.999992 180.333336,107.333383 183.999999,93.5000625 C184.999998,89.6667328 187.499995,88.0000677 190.333326,87.8334012 C194.499989,87.6667347 198.999984,91.1667314 197.833319,95.6667271 Z" id="Path" fill="#FF6B39"></path>
            <path d="M194.666655,54.5000997 C190.999992,54.5000997 186.33333,51.1667695 186.33333,45.1667752 C186.33333,39.3334475 191.499992,33.0001202 196.83332,32.8334537 C201.499982,32.8334537 205.666645,35.3334513 205.666645,42.3334446 C205.666645,48.5001054 199.999983,54.3334332 194.666655,54.5000997 Z" id="Path" fill="#FF6B39"></path>
            <path d="M237.499989,121.833369 L236.166657,121.833369 C234.999991,128.333363 234.833325,135.000023 235.833324,141.000017 C237.833322,153.166672 246.833313,159.166667 256.333304,156.166669 C265.333296,153.333339 284.666612,140.333351 291.666606,113.333377 C292.499938,110.166713 292.666604,108.833381 293.666603,108.833381 C294.833268,109.000048 296.666601,110.666713 296.166601,113.333377 C293.499937,128.333363 283.166612,143.166682 272.499955,153.666672 C265.666629,160.499999 255.666638,167.999991 244.999982,167.499992 C236.833323,167.166659 229.999996,162.166664 225.666667,155.16667 C222.333337,149.833342 220.333338,143.333348 220.333338,131.500026 C221.000004,117.166707 225.166667,104.166719 235.166658,91.8333974 C240.666652,85.0000706 250.499976,77.1667447 260.499967,77.1667447 C266.333295,77.1667447 272.166622,79.6667423 274.16662,85.3334036 C274.833286,87.3334017 275.166619,89.5000663 275.166619,91.5000644 C275.166619,95.3333941 273.833287,98.8333907 272.333289,101.666721 C265.999962,113.000044 244.999982,121.833369 237.499989,121.833369 Z M247.166646,93.0000629 C243.333316,99.3333902 239.666653,107.166716 237.499989,115.333375 C245.166648,114.500042 253.66664,112.166711 259.166635,103.666719 C262.166632,99.0000572 264.666629,93.1667295 264.666629,88.6667337 C264.666629,85.5000701 262.999964,81.6667404 258.833302,82.0000734 C254.999972,82.3334064 250.33331,87.8334012 247.166646,93.0000629 Z" id="Combined-Shape" fill="#FF6B39"></path>
            <path d="M401.666562,74.8334136 C399.166564,76.5000787 396.333234,77.5000777 393.66657,77.5000777 C389.499907,77.5000777 385.666577,75.5000796 384.499912,71.3334169 C383.16658,66.6667547 385.333244,60.833427 389.83324,58.3334293 C394.999902,55.5000987 402.166561,52.3334351 401.166562,41.3334455 C400.33323,29.8334565 387.666575,20.1667991 372.66659,20.1667991 C333.166627,20.1667991 308.999984,74.0000811 308.999984,112.333378 C308.999984,140.833351 318.999974,175.999984 354.49994,175.999984 C387.666575,175.999984 418.499879,137.333354 429.666535,107.00005 C430.333201,105.000051 431.8332,103.16672 432.666532,103.500053 C434.166531,104.166719 433.499865,108.833381 432.999865,110.33338 C423.166541,142.666682 387.833242,187.333306 349.499945,187.333306 C313.166646,187.333306 292.166666,153.666672 292.166666,117.50004 C292.166666,73.1667485 322.99997,14.5001378 373.333256,14.5001378 C395.166568,14.5001378 413.166551,29.66679 413.166551,52.000102 C413.166551,61.6667595 409.333221,69.5000854 401.666562,74.8334136 Z" id="Path" fill="#EEBA4C"></path>
            <path d="M486.333279,92.8333964 C486.666612,96.0000601 487.333278,112.333378 493.166606,112.333378 C498.166601,112.333378 504.666595,103.833386 507.999925,99.0000572 C509.333257,97.0000591 510.833256,96.8333926 511.666588,97.3333921 C512.499921,97.8333917 512.333254,99.3333902 511.166589,101.333388 C507.333259,107.666716 496.499936,121.333369 485.999946,121.500036 C479.666619,121.500036 475.999956,117.50004 474.166624,110.666713 C471.666626,101.000055 472.166626,88.5000672 470.166628,88.5000672 C464.3333,88.5000672 452.333312,122.000035 447.333316,145.16668 C446.333317,150.000009 444.333319,164.499995 437.166659,165.333327 C431.833331,165.999993 429.666667,158.5 429,153.500005 C427.166669,139.666685 426.666669,125.166699 426.000003,103.500053 C425.833337,97.0000591 425.66667,89.0000668 432.666664,89.0000668 C435.166661,89.0000668 438.499991,90.1667323 438.999991,94.666728 C440.666656,109.000048 439.166657,134.333357 442.333321,134.333357 C444.333319,130.83336 457.999973,80.8334079 472.833292,77.6667442 C474.166624,77.3334112 475.33329,77.3334112 476.333289,77.3334112 C483.833282,77.5000777 485.499947,85.3334036 486.333279,92.8333964 Z" id="Path" fill="#EEBA4C"></path>
            <path d="M521.83332,95.8333936 C519.666655,105.333385 518.333323,117.166707 518.333323,127.333364 C518.333323,139.833352 520.166654,150.000009 525.16665,150.000009 C534.499974,150.000009 546.666629,127.50003 557.833285,97.1667256 C559.99995,91.3333979 563.666613,89.3333998 566.499944,89.3333998 C570.999939,89.3333998 573.33327,92.1667304 574.166603,101.000055 C576.333268,123.833367 580.333264,144.000014 587.499924,144.000014 C593.333251,144.000014 601.49991,126.666698 604.666574,116.166708 C605.166573,114.333376 606.166572,113.66671 606.999905,113.66671 C607.999904,113.66671 608.833237,114.833375 608.499904,116.833374 C606.166572,129.000029 596.666581,155.66667 580.666597,155.66667 C565.166612,155.500003 562.499947,122.666701 561.166615,105.333385 C554.499955,122.166702 538.166637,162.83333 521.166653,162.83333 C515.499992,162.83333 507.833333,158.666667 505.333335,145.333346 C504.666669,141.33335 504.16667,134.66669 504.333336,127.000031 C504.500003,115.833375 506.000001,103.000053 508.999998,94.5000615 C510.33333,90.6667318 513.666661,89.1667333 516.499991,89.3333998 C519.833321,89.5000663 522.666652,92.0000639 521.83332,95.8333936 Z" id="Path" fill="#EEBA4C"></path>
            <path d="M659.833282,93.5000625 C659.999949,97.1667256 658.99995,101.833388 656.333285,104.833385 C654.333287,107.00005 651.33329,108.000049 648.49996,108.000049 C644.833296,108.000049 640.166634,105.833384 640.166634,101.000055 C640.166634,97.6667252 642.499965,94.000062 646.666628,91.6667309 C647.499961,91.1667314 647.833294,90.3333988 647.833294,89.3333998 C647.833294,85.5000701 643.166631,81.0000744 637.666637,81.0000744 C627.666646,81.0000744 617.999989,90.5000653 617.666656,100.000056 C617.666656,112.166711 629.999977,122.000035 640.499967,130.83336 C655.333286,123.500034 670.833272,114.166709 681.166595,100.500056 C682.666594,98.5000577 684.166592,98.3333912 685.166591,98.8333907 C686.16659,99.3333902 686.499923,100.833389 685.499924,102.500054 C677.833265,115.000042 659.833282,126.666698 644.999963,134.500023 C649.166626,138.666686 654.999953,142.166683 655.16662,149.166676 C655.16662,162.33333 638.499969,167.666658 626.99998,167.666658 C615.333325,167.666658 609.166664,162.83333 609.166664,156.500002 C609.166664,148.166677 619.333321,142.000016 626.666647,137.833354 C616.333324,129.666695 603.833336,119.500038 603.833336,109.166714 C603.833336,91.8333974 620.666653,75.8334126 638.999969,75.8334126 C649.166626,75.8334126 659.333283,81.5000739 659.833282,93.5000625 Z M628.166646,162.166664 C632.666641,162.166664 641.166633,159.5 641.166633,153.333339 C640.999967,148.666677 634.666639,144.166681 631.499976,141.666683 C627.999979,143.833348 618.333322,149.500009 618.333322,155.333337 C618.333322,159.333333 620.999986,162.166664 628.166646,162.166664 Z" id="Combined-Shape" fill="#EEBA4C"></path>
            <path d="M672.16667,71.3334169 C667.166675,71.8334165 657.333351,71.1667504 655.833352,64.6667566 C655.166686,62.166759 657.166684,57.5000968 661.000014,56.8334308 C664.50001,56.3334312 666.833342,59.5000949 668.83334,60.3334274 C672.333336,62.0000925 675,62.500092 677.666665,62.500092 L678.333331,62.500092 C680.499995,49.1667714 683.333326,36.6667833 686.333323,26.8334594 C687.666655,22.3334637 691.333318,20.5001321 694.333315,20.8334651 C697.833312,21.3334646 700.666643,24.5001283 699.666644,29.66679 C697.833312,38.3334484 695.499981,49.1667714 693.16665,61.0000935 C701.166642,59.6667614 709.666634,57.6667633 717.999959,57.6667633 C720.83329,57.6667633 731.83328,58.8334289 731.83328,62.833425 C731.83328,64.1667571 730.833281,65.3334227 729.333282,65.3334227 C728.333283,65.3334227 727.333284,64.8334231 726.333285,64.3334236 C724.499953,63.5000911 722.166622,62.833425 717.833293,62.833425 C709.166635,62.833425 700.833309,65.0000896 691.999984,67.1667542 C688.833321,84.8334041 686.166656,104.000052 686.833323,120.83337 C687.666655,141.33335 690.833319,153.833338 698.166645,153.833338 C709.166635,153.833338 719.833291,125.666698 725.333286,109.000048 C725.833285,107.333383 726.833284,106.333384 727.49995,106.333384 C728.333283,106.333384 728.999949,107.333383 728.666616,109.83338 C725.166619,131.000027 710.999966,165.499994 693.16665,165.499994 C677.666665,165.499994 674.000001,144.166681 673.500002,126.666698 C673.166669,109.333381 674.500001,89.3333998 677.166665,70.6667509 C675.333333,71.0000839 673.833335,71.1667504 672.16667,71.3334169 Z" id="Path" fill="#EEBA4C"></path>
        </g>
    </g>
</svg>