<?xml version="1.0" encoding="UTF-8"?>
<svg width="750px" height="400px" viewBox="0 0 750 400" version="1.1" xmlns="http://www.w3.org/2000/svg" xmlns:xlink="http://www.w3.org/1999/xlink">
    <!-- Generator: Sketch 49 (51002) - http://www.bohemiancoding.com/sketch -->
    <title>piecrust-logo</title>
    <desc>Created with Sketch.</desc>
    <defs></defs>
    <g id="piecrust-logo" stroke="none" stroke-width="1" fill="none" fill-rule="evenodd">
        <g id="logo-mark" transform="translate(235.000000, 23.000000)" fill-rule="nonzero">
            <path d="M35.5404914,51.555724 C42.44404,49.5957544 49.6885047,42.3949962 51.6061571,35.4924943 C53.566424,28.5899924 60.9813467,23.1787718 68.1405823,23.4770281 C75.299818,23.7752843 84.4193206,19.1310083 88.3824689,13.1658832 C92.3456172,7.20075815 101.124204,4.34601971 107.81468,6.85989386 C114.547771,9.33115997 124.647407,7.75466262 130.27252,3.32342684 C135.897634,-1.10780895 145.102366,-1.10780895 150.72748,3.32342684 C156.352593,7.75466262 166.452229,9.37376801 173.18532,6.85989386 C179.918411,4.38862775 188.654383,7.20075815 192.660146,13.1658832 C196.623294,19.1310083 205.742796,23.7752843 212.902032,23.4770281 C220.061268,23.1787718 227.518805,28.5899924 229.436457,35.4924943 C231.396724,42.3949962 238.598574,49.6383624 245.502123,51.555724 C252.405672,53.5156937 257.817713,60.929492 257.519412,68.0876422 C257.22111,75.2457923 261.86609,84.3639121 267.83212,88.3264594 C273.79815,92.2890068 276.653321,101.066262 274.139066,107.798332 C271.667425,114.530402 273.244161,124.628506 277.676069,130.252767 C282.107977,135.877028 282.107977,145.080364 277.676069,150.704625 C273.244161,156.328886 271.62481,166.42699 274.096451,173.15906 C276.568092,179.89113 273.755535,188.625777 267.789506,192.630933 C261.823476,196.59348 257.178496,205.7116 257.476797,212.86975 C257.775099,220.0279 252.363057,227.484306 245.459509,229.401668 C238.55596,231.361638 231.311495,238.562396 229.393843,245.464898 C227.433576,252.3674 220.018653,257.77862 212.859418,257.480364 C205.700182,257.182108 196.580679,261.826384 192.617531,267.791509 C188.654383,273.756634 179.875796,276.611372 173.18532,274.097498 C166.452229,271.626232 156.352593,273.202729 150.72748,277.676573 C145.102366,282.107809 135.897634,282.107809 130.27252,277.676573 C124.647407,273.245337 114.547771,271.626232 107.81468,274.140106 C101.081589,276.611372 92.3456172,273.799242 88.3398544,267.834117 C84.3767061,261.868992 75.2572035,257.224716 68.0979678,257.522972 C60.9387322,257.821228 53.481195,252.410008 51.5635426,245.507506 C49.6032757,238.605004 42.4014255,231.361638 35.4978769,229.444276 C28.5943282,227.484306 23.1822869,220.070508 23.4805884,212.912358 C23.7788899,205.754208 19.1339096,196.636088 13.1678799,192.673541 C7.20185017,188.710993 4.3466788,179.933738 6.86093418,173.244276 C9.33257507,166.512206 7.75583864,156.414102 3.32393085,150.789841 C-1.10797695,145.16558 -1.10797695,135.962244 3.32393085,130.337983 C7.75583864,124.713723 9.37518957,114.615618 6.86093418,107.883548 C4.3892933,101.151478 7.20185017,92.4168309 13.1678799,88.4542835 C19.1339096,84.4917362 23.7788899,75.3736164 23.4805884,68.2154663 C23.2249014,60.929492 28.6369427,53.4730857 35.5404914,51.555724 Z" id="Shape" fill="#E6AE67"></path>
            <path d="M217.780782,63.2163796 C260.739739,106.185709 260.739739,175.846175 217.780782,218.773003 C174.821825,261.742332 105.178175,261.742332 62.2192178,218.773003 C19.2602607,175.803673 19.2602607,106.143207 62.2192178,63.1738778 C105.220666,20.2470501 174.821825,20.2895519 217.780782,63.2163796 Z" id="Shape" fill="#FF4504"></path>
            <g id="Group" transform="translate(31.000000, 25.000000)">
                <g transform="translate(7.645714, 3.405858)" fill="#C53502" id="Shape">
                    <polygon points="206.816571 128.187991 0.339809524 128.187991 0.339809524 135.638306 206.816571 135.595733"></polygon>
                    <polygon points="158.733524 192.941872 48.4653333 192.941872 48.4653333 200.349614 158.733524 200.349614"></polygon>
                    <polygon points="203.970667 63.3489641 2.42114286 63.3489641 2.42114286 70.7992791 203.970667 70.7992791"></polygon>
                    <polygon points="124.285333 223.764889 124.285333 0.212866143 76.032381 0.212866143 76.032381 223.764889"></polygon>
                    <polygon points="188.891619 178.977853 188.891619 41.6791908 154.953143 11.7076379 140.638667 11.7076379 140.638667 214.994804 149.940952 214.994804"></polygon>
                    <polygon points="59.6790476 214.994804 59.6790476 5.91767877 11.4260952 44.2335845 11.4260952 172.677015 53.0102857 214.994804"></polygon>
                    <polygon points="188.891619 178.977853 188.891619 41.6791908 154.953143 11.7076379 140.638667 11.7076379 140.638667 214.994804 149.940952 214.994804"></polygon>
                </g>
                <path d="M2.37866667,131.593849 L220.621333,131.593849 C222.957524,120.609956 223.467238,109.328051 222.192952,98.2590115 L0.807047619,98.2590115 C-0.467238095,109.328051 0.0424761905,120.609956 2.37866667,131.593849 Z M29.9032381,182.213418 C35.3401905,187.662791 41.244381,192.38842 47.5308571,196.34773 L175.511619,196.34773 C181.755619,192.38842 187.65981,187.662791 193.139238,182.213418 C199.043429,176.295739 204.055619,169.824609 208.218286,162.970319 L14.9091429,162.970319 C18.9868571,169.824609 23.9990476,176.295739 29.9032381,182.213418 Z M188.169524,33.4625576 L34.8304762,33.4625576 C33.1739048,34.9526206 31.5173333,36.4852569 29.9032381,38.0604663 C21.3230476,46.6602585 14.6118095,56.4095278 9.72704762,66.7973956 L213.230476,66.7973956 C208.345714,56.4095278 201.634476,46.6602585 193.054286,38.0604663 C191.482667,36.4852569 189.868571,34.9526206 188.169524,33.4625576 Z" id="Shape" fill="#E6AE67"></path>
                <path d="M83.6780952,131.593849 L131.931048,131.593849 L131.931048,98.2590115 L83.6780952,98.2590115 L83.6780952,131.593849 Z M67.3247619,33.4625576 L34.8304762,33.4625576 C33.1739048,34.9526206 31.5173333,36.4852569 29.9032381,38.0604663 C21.408,46.575112 14.7392381,56.1966617 9.89695238,66.499383 L9.89695238,66.8399688 L67.3247619,66.8399688 L67.3247619,33.4625576 Z M190.420762,33.4625576 L148.326857,33.4625576 L148.326857,66.7973956 L209.025333,66.7973956 L209.025333,55.0046113 C205.16,49.0017861 200.615048,43.2969734 195.390476,38.0604663 C193.733905,36.4852569 192.077333,34.9526206 190.420762,33.4625576 Z M7.51828571,162.970319 C11.6809524,169.824609 16.6931429,176.295739 22.5973333,182.213418 C28.0342857,187.662791 33.9384762,192.38842 40.1824762,196.34773 L67.3247619,196.34773 L67.3247619,163.012892 L7.51828571,163.012892 L7.51828571,162.970319 Z M148.284381,196.34773 L176.488571,196.34773 C182.732571,192.38842 188.636762,187.662791 194.11619,182.213418 C199.340762,176.976911 203.885714,171.272098 207.751048,165.2267 L207.751048,162.970319 L148.284381,162.970319 L148.284381,196.34773 Z" id="Shape" fill="#AA6D33"></path>
                <path d="M39.0780952,26.821134 C34.3207619,31.5893356 30.1580952,36.698123 26.547619,42.0623498 L26.547619,184.554946 C30.1580952,189.919173 34.3207619,195.02796 39.0780952,199.796162 C45.4495238,206.139573 52.415619,211.503799 59.8489524,215.846269 L59.8489524,10.7710268 C52.415619,15.1134961 45.4495238,20.4777229 39.0780952,26.821134 Z M155.802667,8.38692602 L155.802667,221.295642 C165.57219,216.484867 174.789524,210.013736 182.902476,201.839677 C185.068762,199.668442 187.107619,197.412061 189.061524,195.070533 L189.061524,34.6120348 C187.107619,32.2705072 185.068762,30.0141261 182.902476,27.8428915 C174.747048,19.7114048 165.57219,13.1977009 155.802667,8.38692602 Z M91.1539048,2.00094174 L91.1539048,224.616354 C102.112762,226.787588 113.368952,227.128174 124.412762,225.680685 L124.412762,0.936611028 C113.368952,-0.510878743 102.155238,-0.170292914 91.1539048,2.00094174 Z" id="Shape" fill="#E6AE67"></path>
                <rect id="Rectangle-path" fill="#AA6D33" x="26.547619" y="90.72355" width="33.2588571" height="48.3631876"></rect>
                <rect id="Rectangle-path" fill="#AA6D33" x="91.1539048" y="25.9696694" width="33.2588571" height="48.3631876"></rect>
                <rect id="Rectangle-path" fill="#AA6D33" x="155.802667" y="90.72355" width="33.2588571" height="48.3631876"></rect>
                <path d="M11.5535238,131.593849 L73.6537143,131.593849 C75.9899048,120.609956 76.499619,109.328051 75.2253333,98.2590115 L9.98190476,98.2590115 C8.70761905,109.328051 9.21733333,120.609956 11.5535238,131.593849 Z" id="Shape" fill="#E6AE67"></path>
                <path d="M141.403238,131.593849 L203.460952,131.593849 C205.797143,120.609956 206.306857,109.328051 205.032571,98.2590115 L139.789143,98.2590115 C138.514857,109.328051 139.024571,120.609956 141.403238,131.593849 Z" id="Shape" fill="#E6AE67"></path>
                <path d="M76.7544762,66.8399688 L138.854667,66.8399688 C141.190857,55.8560759 141.700571,44.5741703 140.426286,33.5051309 L75.1828571,33.5051309 C73.9085714,44.5741703 74.4182857,55.8560759 76.7544762,66.8399688 Z" id="Shape" fill="#E6AE67"></path>
                <rect id="Rectangle-path" fill="#AA6D33" x="91.1539048" y="155.520004" width="33.2588571" height="48.3631876"></rect>
                <path d="M76.7544762,196.34773 L138.854667,196.34773 C141.190857,185.363837 141.700571,174.081932 140.426286,163.012892 L75.1828571,163.012892 C73.9085714,174.124505 74.4182857,185.40641 76.7544762,196.34773 Z" id="Shape" fill="#E6AE67"></path>
            </g>
            <path d="M254.186155,112.592133 C259.175056,101.337449 253.546552,90.2959209 244.165712,86.3738338 C246.084521,76.6112476 240.583937,65.7828768 228.090364,63.3102567 C227.706603,51.8424152 217.345039,43.8703469 206.983475,44.7229745 C204.041303,34.3209176 192.571094,28.0967359 181.99633,31.6777719 C178.926237,26.5620062 174.534298,23.6204409 169.588037,22.512025 C162.850889,21.0199267 158.970632,22.6399192 154.578694,25.0272765 C146.434419,16.8846827 134.239328,17.0978396 126.393535,25.0272765 C122.257437,22.7678133 118.2919,20.9346639 111.341551,22.512025 C106.139449,23.7057037 101.57695,27.1162142 98.9758987,31.6777719 C88.4437742,28.1393673 76.9309255,34.2356548 73.9887531,44.7656059 C68.1896886,44.6377118 63.4139884,45.3198139 58.0413257,50.9045248 C55.056513,54.059247 53.1377049,58.3223851 52.8818638,63.3528881 C46.6563975,64.7597236 42.3070991,66.8486613 38.7679642,73.3286312 C36.5506748,77.5065066 35.9110721,82.025433 36.8491561,86.4164652 C27.1698352,90.4664464 21.8824528,101.976919 26.8287137,112.634765 C18.0874768,119.157366 16.3392294,131.776255 23.4174993,140.515688 C16.9788321,148.573019 17.1493928,160.595068 26.7860735,168.35398 C22.0530135,178.116566 26.4875923,190.266509 36.8065159,194.61491 C34.5465863,205.315387 41.9659777,215.973232 52.8818638,217.678487 C53.2229853,228.464227 62.859666,237.20366 73.9887531,236.26577 C76.8882853,246.625195 88.2732134,252.93464 99.0185389,249.310972 C102.003351,253.87253 104.945524,257.027252 111.426831,258.51935 C117.439097,259.840923 121.745755,258.732507 126.436175,256.004099 C133.898206,263.805642 146.818181,264.189324 154.621334,256.004099 C163.831613,261.88723 176.581027,258.988296 182.03897,249.310972 C184.853222,250.120968 189.884763,251.868855 197.176234,248.159925 C201.354971,246.113619 205.320508,242.021006 206.983475,236.308401 C216.918637,237.161029 227.237561,230.169482 228.090364,217.721119 C240.242816,215.546918 246.127161,204.548022 244.165712,194.61491 C246.852044,193.335969 251.755664,191.332294 254.783117,183.701277 C256.744566,178.798668 256.531365,173.128694 254.228795,168.396611 C263.268513,161.660853 264.462438,148.573019 257.597369,140.515688 C264.505078,131.776255 263.183233,119.58368 254.186155,112.592133 Z M247.278446,128.451007 C247.107885,129.985737 246.852044,130.284156 246.04188,131.349941 C244.720035,132.969933 242.545386,135.698342 242.588026,140.473056 C242.545386,143.926198 243.824591,147.208815 246.169801,149.766697 C247.832768,151.514584 247.619567,155.010357 245.274357,156.63035 C239.432652,160.552437 237.471204,168.396611 240.839778,174.578161 C241.522021,175.857103 241.394101,177.349201 241.052979,178.24446 C240.328096,180.120241 239.944335,180.290766 238.238727,181.100763 C235.637676,182.337073 232.695504,183.957065 230.776696,187.793889 C228.133005,193.208075 229.795972,196.874373 229.881252,198.536997 C229.923892,199.688045 228.900528,201.734351 227.621322,202.459084 C225.361393,203.823289 221.140015,202.757504 216.875997,207.745376 C213.763264,211.326412 213.550063,214.779554 213.422142,216.82586 C213.336862,218.190064 213.336862,218.531115 212.484058,219.682162 C211.716535,220.705315 210.096208,221.813731 208.09212,221.600575 C201.397612,220.747947 195.001585,224.627403 192.912216,231.917369 C192.784295,232.428945 192.699015,232.727365 192.571094,233.025785 C192.229973,233.707887 191.291889,234.645777 190.694926,234.944197 C188.776118,235.882087 188.477637,235.882087 186.516189,235.285248 C184.38418,234.688408 180.845045,233.665255 176.623667,235.327879 C173.425653,236.564189 170.824602,238.908915 169.289556,241.893112 C168.01035,244.323101 164.641776,245.090465 162.296566,243.470473 C156.326941,239.463123 148.95019,240.486276 144.13185,245.644673 C141.91456,248.032031 138.545986,247.563086 136.925659,245.729936 C133.471804,241.807849 128.056502,240.145225 123.02496,241.466798 C118.547741,242.660477 118.2919,244.962571 114.624845,244.152575 C112.919238,243.768893 112.706037,243.470473 111.682672,241.807849 C110.701948,240.315751 109.294822,238.056288 106.608491,236.436295 C102.941435,234.134201 98.5068567,233.750518 94.4133994,235.327879 C91.5138671,236.393664 88.6569751,234.389989 88.1026527,232.087894 C86.4823259,225.181611 79.9583783,220.662684 72.8801084,221.600575 C70.3216976,221.898994 67.6353662,219.895319 67.5500858,217.039017 C67.3368849,209.10958 61.7936615,203.908551 55.2697139,203.183818 C52.5407424,202.842767 50.5366539,200.029096 51.2188968,197.513844 C53.0524246,190.650192 49.3427289,183.616014 42.6482206,181.143394 C40.2177303,180.205504 38.8106044,177.263938 40.13245,174.53553 C40.8146928,173.171326 41.9659777,170.8266 41.7101366,167.288195 C41.2837348,157.397715 33.2247408,157.653503 33.6937827,152.495106 C33.8643435,150.960376 34.1201845,150.661956 34.930348,149.596172 C36.2521936,147.976179 38.4268427,145.247771 38.3842026,140.515688 C38.4694829,133.907824 34.6318667,131.989412 33.9069836,129.644686 C33.2247408,127.342591 34.2907453,125.338916 35.655231,124.358394 C41.0278937,120.777358 43.5436644,113.913706 40.13245,106.453214 C39.5781276,105.259536 39.4502071,104.961116 39.663408,103.55428 C39.8766089,102.190076 40.857333,100.527452 42.6055804,99.8879816 C49.3427289,97.4153615 53.0524246,90.3385523 51.2188968,83.5175313 C51.0483361,82.7927978 50.9204156,81.7696447 51.6879388,80.234915 C52.7965835,78.3591342 53.2656255,78.2738714 55.3123541,77.8049262 C57.4870033,77.335981 61.196699,76.5686162 64.0962312,73.2007371 C69.0851323,67.488132 66.2708804,63.6939391 68.7013707,60.9655307 C70.3216976,59.3029069 70.7907395,59.3029069 72.8801084,59.3881696 C75.0973978,59.4734324 78.8497336,59.6013265 82.5594293,57.0008123 C85.3736812,55.0397688 87.3351295,52.1408348 88.1026527,48.8582185 C88.6569751,46.4708612 91.6417877,44.6377118 94.4133994,45.6182335 C101.022627,48.1761164 108.442019,45.3624453 111.682672,39.0530009 C112.364915,37.7314281 113.686761,37.0066946 114.624845,36.7935377 C116.586293,36.3672239 117.055335,36.6230121 118.760942,37.5609025 C120.63711,38.6266871 123.792484,40.3745737 128.184422,39.8203657 C134.623089,39.0530009 136.755098,34.7472314 138.247505,34.1930234 C144.430331,31.6777719 143.833368,38.7545812 152.787806,39.8203657 C157.179745,40.3745737 160.335118,38.5840557 162.211286,37.5609025 C163.916893,36.6230121 164.385935,36.3672239 166.347383,36.7935377 C169.588037,37.5609025 169.033715,40.1187854 172.444929,43.1029821 C176.367826,46.5134926 181.740489,47.4940143 186.558829,45.6182335 C189.24516,44.6377118 192.272613,46.3855984 192.869576,48.8582185 C194.489902,55.7645022 201.01385,60.2834286 208.09212,59.3455382 C210.821091,59.0471186 212.9531,61.221319 213.336862,62.9692056 C213.635343,64.4186726 212.995741,67.0191868 215.340951,71.1117994 C220.670973,80.4054405 228.388846,75.204412 229.795972,81.7270133 C230.222373,83.9438451 227.877164,87.2264614 230.819336,93.1948548 C232.397023,96.3922084 235.168634,98.6943029 238.366648,99.8879816 C240.157535,100.570084 241.13826,102.232708 241.351461,103.55428 C241.564661,105.003747 241.436741,105.259536 240.882419,106.495846 C240.029615,108.371626 238.579849,111.526349 239.645853,116.130538 C241.13826,122.610508 245.316997,123.548398 246.681483,125.76523 C247.150525,126.575226 247.321086,127.93943 247.278446,128.451007 Z" id="Shape" fill="#8C440D"></path>
        </g>
        <g id="logo-typelockup" transform="translate(197.000000, 325.000000)" fill-rule="nonzero">
            <path d="M43.2129032,3.82297552 L0,3.82297552 L0,58 L11.7354839,58 L11.7354839,40.5963591 C11.8086022,40.6691777 11.9548387,40.6691777 11.9548387,40.6691777 C11.9548387,40.3779033 11.8817204,40.2322662 11.7354839,40.2322662 L43.2129032,40.1594476 C49.427957,40.1594476 54.4731183,35.0985562 54.4731183,29.0182046 L54.4731183,14.9642185 C54.4731183,8.88386692 49.3913978,3.82297552 43.2129032,3.82297552 Z M42.5913978,28.3992467 L11.7354839,28.3992467 L11.7354839,15.5103578 L42.5913978,15.5103578 L42.5913978,28.3992467 Z M58.0193548,58 L69.6086022,58 L69.6086022,14.3088512 L58.0193548,14.3088512 L58.0193548,58 Z M58.0193548,11.5781544 L69.6086022,11.5781544 L69.6086022,0 L58.0193548,0 L58.0193548,11.5781544 Z M119,41.9435028 L119,25.2316384 C119,19.296924 114.064516,14.3088512 108.032258,14.3088512 L85.4752688,14.3088512 C79.516129,14.3088512 74.5075269,19.296924 74.5075269,25.2316384 L74.5075269,47.0772128 C74.5075269,53.0119272 79.516129,58 85.4752688,58 L119,58 L119,46.4582549 L86.0967742,46.4582549 L86.0967742,41.9435028 L119,41.9435028 Z M86.0967742,25.8141871 L107.410753,25.8141871 L107.410753,31.8581293 L86.0967742,31.8581293 L86.0967742,25.8141871 Z" id="Shape" fill="#FF4504"></path>
            <g id="Group" transform="translate(133.000000, 0.000000)" fill="#D8A361">
                <path d="M53.9188618,12.035 L53.9188618,3.915 L9.82650407,3.915 C4.42373984,3.915 0.0725203252,8.265 0.0725203252,13.66625 L0.0725203252,48.17625 C0.0725203252,53.5775 4.42373984,57.9275 9.82650407,57.9275 L53.955122,57.9275 L53.955122,49.8075 L9.82650407,49.8075 C8.92,49.8075 8.15853659,49.04625 8.15853659,48.17625 L8.15853659,13.66625 C8.15853659,12.76 8.92,11.99875 9.82650407,11.99875 L53.9188618,11.99875 L53.9188618,12.035 Z" id="Shape"></path>
                <path d="M69.6920325,14.4275 C64.2892683,14.4275 59.9380488,18.7775 59.9380488,24.17875 L59.9380488,48.17625 L59.9380488,57.9275 L68.024065,57.9275 L68.024065,24.17875 C68.024065,23.2725 68.7855285,22.5475 69.6920325,22.5475 L93.9863415,22.5475 L93.9863415,14.4275 L69.6920325,14.4275 Z" id="Shape"></path>
                <path d="M133.074797,14.4275 L133.074797,48.17625 C133.074797,49.0825 132.313333,49.8075 131.443089,49.8075 L106.677398,49.8075 C105.770894,49.8075 105.045691,49.04625 105.045691,48.17625 L105.045691,14.4275 L96.9596748,14.4275 L96.9596748,48.17625 C96.9596748,53.5775 101.310894,57.9275 106.713659,57.9275 L131.47935,57.9275 C136.882114,57.9275 141.233333,53.5775 141.233333,48.17625 L141.233333,14.4275 L133.074797,14.4275 Z" id="Shape"></path>
                <path d="M190.692195,24.17875 C190.692195,18.7775 186.340976,14.4275 180.938211,14.4275 L156.17252,14.4275 C150.769756,14.4275 146.418537,18.7775 146.418537,24.17875 L146.418537,30.48625 C146.418537,35.8875 150.769756,40.2375 156.17252,40.2375 L180.938211,40.2375 C181.844715,40.2375 182.606179,40.99875 182.606179,41.86875 L182.606179,48.17625 C182.606179,49.0825 181.844715,49.8075 180.938211,49.8075 L156.17252,49.8075 C155.266016,49.8075 154.540813,49.04625 154.540813,48.17625 L154.540813,46.50875 L146.418537,46.50875 L146.418537,48.17625 C146.418537,53.5775 150.769756,57.9275 156.17252,57.9275 L180.938211,57.9275 C186.340976,57.9275 190.692195,53.5775 190.692195,48.17625 L190.692195,41.86875 C190.692195,36.4675 186.340976,32.1175 180.938211,32.1175 L156.17252,32.1175 C155.266016,32.1175 154.540813,31.35625 154.540813,30.45 L154.540813,24.1425 C154.540813,23.23625 155.302276,22.51125 156.17252,22.51125 L180.938211,22.51125 C181.844715,22.51125 182.606179,23.2725 182.606179,24.1425 L182.606179,25.81 L190.692195,25.81 L190.692195,24.17875 Z" id="Shape"></path>
                <path d="M222.746179,22.51125 L222.746179,14.4275 L204.869919,14.4275 L204.869919,0.18125 L196.783902,0.18125 L196.783902,24.17875 L196.783902,48.17625 C196.783902,53.5775 201.135122,57.9275 206.537886,57.9275 L222.746179,57.9275 L222.746179,49.8075 L206.537886,49.8075 C205.631382,49.8075 204.869919,49.04625 204.869919,48.17625 L204.869919,22.51125 L222.746179,22.51125 Z" id="Shape"></path>
            </g>
        </g>
    </g>
</svg>