<?xml version="1.0" encoding="utf-8"?>
<!-- Generator: Adobe Illustrator 15.0.0, SVG Export Plug-In . SVG Version: 6.00 Build 0)  -->
<!DOCTYPE svg PUBLIC "-//W3C//DTD SVG 1.1//EN" "http://www.w3.org/Graphics/SVG/1.1/DTD/svg11.dtd">
<svg version="1.1" id="Layer_1" xmlns="http://www.w3.org/2000/svg" xmlns:xlink="http://www.w3.org/1999/xlink" x="0px" y="0px"
	 width="800px" height="800px" viewBox="0 0 800 800" enable-background="new 0 0 800 800" xml:space="preserve">
<g>
	<g>
		<path fill="#E6AE67" d="M153.2,191.6c16.2-4.6,33.2-21.5,37.7-37.7c4.6-16.2,22-28.9,38.8-28.2c16.8,0.7,38.2-10.2,47.5-24.2
			c9.3-14,29.9-20.7,45.6-14.8c15.8,5.8,39.5,2.1,52.7-8.3c13.2-10.4,34.8-10.4,48,0c13.2,10.4,36.9,14.2,52.7,8.3
			c15.8-5.8,36.3,0.8,45.7,14.8c9.3,14,30.7,24.9,47.5,24.2c16.8-0.7,34.3,12,38.8,28.2c4.6,16.2,21.5,33.2,37.7,37.7
			c16.2,4.6,28.9,22,28.2,38.8c-0.7,16.8,10.2,38.2,24.2,47.5c14,9.3,20.7,29.9,14.8,45.7c-5.8,15.8-2.1,39.5,8.3,52.7
			c10.4,13.2,10.4,34.8,0,48c-10.4,13.2-14.2,36.9-8.4,52.7c5.8,15.8-0.8,36.3-14.8,45.7c-14,9.3-24.9,30.7-24.2,47.5
			c0.7,16.8-12,34.3-28.2,38.8c-16.2,4.6-33.2,21.5-37.7,37.7c-4.6,16.2-22,28.9-38.8,28.2c-16.8-0.7-38.2,10.2-47.5,24.2
			c-9.3,14-29.9,20.7-45.6,14.8c-15.8-5.8-39.5-2.1-52.7,8.4c-13.2,10.4-34.8,10.4-48,0c-13.2-10.4-36.9-14.2-52.7-8.3
			c-15.8,5.8-36.3-0.8-45.7-14.8c-9.3-14-30.7-24.9-47.5-24.2c-16.8,0.7-34.3-12-38.8-28.2c-4.6-16.2-21.5-33.2-37.7-37.7
			c-16.2-4.6-28.9-22-28.2-38.8c0.7-16.8-10.2-38.2-24.2-47.5c-14-9.3-20.7-29.9-14.8-45.6c5.8-15.8,2.1-39.5-8.3-52.7
			c-10.4-13.2-10.4-34.8,0-48c10.4-13.2,14.2-36.9,8.3-52.7c-5.8-15.8,0.8-36.3,14.8-45.6c14-9.3,24.9-30.7,24.2-47.5
			C124.3,213.6,137,196.1,153.2,191.6L153.2,191.6z M153.2,191.6"/>
	</g>
	<path fill="#FF4504" d="M581.5,218.3c101.1,101.1,101.1,265,0,366c-101.1,101.1-265,101.1-366.1,0c-101.1-101.1-101.1-265,0-366.1
		C316.6,117.2,480.4,117.3,581.5,218.3L581.5,218.3z M581.5,218.3"/>
	<g>
		<g>
			<path fill="#997443" d="M585.6,206.4"/>
			<polygon fill="#C53502" points="647.9,438.1 161.8,438.1 161.8,455.6 647.9,455.5 			"/>
			<polygon fill="#C53502" points="534.7,590.2 275.1,590.2 275.1,607.6 534.7,607.6 			"/>
			<polygon fill="#C53502" points="641.2,285.8 166.7,285.8 166.7,303.3 641.2,303.3 			"/>
			<polygon fill="#C53502" points="453.6,662.6 453.6,137.5 340,137.5 340,662.6 			"/>
			<polygon fill="#C53502" points="605.7,557.4 605.7,234.9 525.8,164.5 492.1,164.5 492.1,642 514,642 			"/>
			<polygon fill="#C53502" points="301.5,642 301.5,150.9 187.9,240.9 187.9,542.6 285.8,642 			"/>
			<polygon fill="#C53502" points="605.7,557.4 605.7,234.9 525.8,164.5 492.1,164.5 492.1,642 514,642 			"/>
		</g>
		<path fill="#E6AE67" d="M148.6,438.1h513.8c5.5-25.8,6.7-52.3,3.7-78.3l-521.2,0C141.9,385.8,143.1,412.3,148.6,438.1L148.6,438.1
			z M213.4,557c12.8,12.8,26.7,23.9,41.5,33.2l301.3,0c14.7-9.3,28.6-20.4,41.5-33.2c13.9-13.9,25.7-29.1,35.5-45.2l-455.1,0
			C187.7,527.9,199.5,543.1,213.4,557L213.4,557z M586,207.6H225c-3.9,3.5-7.8,7.1-11.6,10.8c-20.2,20.2-36,43.1-47.5,67.5l479.1,0
			c-11.5-24.4-27.3-47.3-47.5-67.5C593.8,214.7,590,211.1,586,207.6L586,207.6z M586,207.6"/>
		<path fill="#AA6D33" d="M340,438.1l113.6,0v-78.3H340L340,438.1z M301.5,207.6H225c-3.9,3.5-7.8,7.1-11.6,10.8
			c-20,20-35.7,42.6-47.1,66.8v0.8l135.2,0L301.5,207.6z M591.3,207.6l-99.1,0v78.3l142.9,0l0-27.7c-9.1-14.1-19.8-27.5-32.1-39.8
			C599.1,214.7,595.2,211.1,591.3,207.6L591.3,207.6z M160.7,511.8c9.8,16.1,21.6,31.3,35.5,45.2c12.8,12.8,26.7,23.9,41.4,33.2
			l63.9,0l0-78.3H160.7z M492.1,590.2h66.4c14.7-9.3,28.6-20.4,41.5-33.2c12.3-12.3,23-25.7,32.1-39.9l0-5.3h-140L492.1,590.2z
			 M340,511.9"/>
		<path fill="#E6AE67" d="M235,192c-11.2,11.2-21,23.2-29.5,35.8l0,334.7c8.5,12.6,18.3,24.6,29.5,35.8c15,14.9,31.4,27.5,48.9,37.7
			V154.3C266.4,164.5,250,177.1,235,192L235,192z M509.8,148.7l0,500.1c23-11.3,44.7-26.5,63.8-45.7c5.1-5.1,9.9-10.4,14.5-15.9
			V210.3c-4.6-5.5-9.4-10.8-14.5-15.9C554.4,175.3,532.8,160,509.8,148.7L509.8,148.7z M357.6,133.7l0,522.9
			c25.8,5.1,52.3,5.9,78.3,2.5V131.2C409.9,127.8,383.5,128.6,357.6,133.7L357.6,133.7z M357.6,133.7"/>
		<rect x="205.5" y="342.1" fill="#AA6D33" width="78.3" height="113.6"/>
		<rect x="357.6" y="190" fill="#AA6D33" width="78.3" height="113.6"/>
		<rect x="509.8" y="342.1" fill="#AA6D33" width="78.3" height="113.6"/>
		<path fill="#E6AE67" d="M170.2,438.1h146.2c5.5-25.8,6.7-52.3,3.7-78.3l-153.6,0C163.5,385.8,164.7,412.3,170.2,438.1L170.2,438.1
			z"/>
		<path fill="#E6AE67" d="M475.9,438.1H622c5.5-25.8,6.7-52.3,3.7-78.3l-153.6,0C469.1,385.8,470.3,412.3,475.9,438.1L475.9,438.1z"
			/>
		<path fill="#E6AE67" d="M323.7,286h146.2c5.5-25.8,6.7-52.3,3.7-78.3l-153.6,0C317,233.7,318.2,260.2,323.7,286L323.7,286z"/>
		<rect x="357.6" y="494.3" fill="#AA6D33" width="78.3" height="113.6"/>
		<path fill="#E6AE67" d="M323.7,590.2h146.2c5.5-25.8,6.7-52.3,3.7-78.3l-153.6,0C317,538,318.2,564.5,323.7,590.2L323.7,590.2z"/>
	</g>
	<path fill="#8C440D" d="M666.3,334.9c11.7-26.4-1.5-52.3-23.5-61.5c4.5-22.9-8.4-48.3-37.7-54.1c-0.9-26.9-25.2-45.6-49.5-43.6
		c-6.9-24.4-33.8-39-58.6-30.6c-7.2-12-17.5-18.9-29.1-21.5c-15.8-3.5-24.9,0.3-35.2,5.9c-19.1-19.1-47.7-18.6-66.1,0
		c-9.7-5.3-19-9.6-35.3-5.9c-12.2,2.8-22.9,10.8-29,21.5c-24.7-8.3-51.7,6-58.6,30.7c-13.6-0.3-24.8,1.3-37.4,14.4
		c-7,7.4-11.5,17.4-12.1,29.2c-14.6,3.3-24.8,8.2-33.1,23.4c-5.2,9.8-6.7,20.4-4.5,30.7c-22.7,9.5-35.1,36.5-23.5,61.5
		c-20.5,15.3-24.6,44.9-8,65.4c-15.1,18.9-14.7,47.1,7.9,65.3c-11.1,22.9-0.7,51.4,23.5,61.6c-5.3,25.1,12.1,50.1,37.7,54.1
		c0.8,25.3,23.4,45.8,49.5,43.6c6.8,24.3,33.5,39.1,58.7,30.6c7,10.7,13.9,18.1,29.1,21.6c14.1,3.1,24.2,0.5,35.2-5.9
		c17.5,18.3,47.8,19.2,66.1,0c21.6,13.8,51.5,7,64.3-15.7c6.6,1.9,18.4,6,35.5-2.7c9.8-4.8,19.1-14.4,23-27.8
		c23.3,2,47.5-14.4,49.5-43.6c28.5-5.1,42.3-30.9,37.7-54.2c6.3-3,17.8-7.7,24.9-25.6c4.6-11.5,4.1-24.8-1.3-35.9
		c21.2-15.8,24-46.5,7.9-65.4C690.5,379.9,687.4,351.3,666.3,334.9z M650.1,372.1c-0.4,3.6-1,4.3-2.9,6.8
		c-3.1,3.8-8.2,10.2-8.1,21.4c-0.1,8.1,2.9,15.8,8.4,21.8c3.9,4.1,3.4,12.3-2.1,16.1c-13.7,9.2-18.3,27.6-10.4,42.1
		c1.6,3,1.3,6.5,0.5,8.6c-1.7,4.4-2.6,4.8-6.6,6.7c-6.1,2.9-13,6.7-17.5,15.7c-6.2,12.7-2.3,21.3-2.1,25.2c0.1,2.7-2.3,7.5-5.3,9.2
		c-5.3,3.2-15.2,0.7-25.2,12.4c-7.3,8.4-7.8,16.5-8.1,21.3c-0.2,3.2-0.2,4-2.2,6.7c-1.8,2.4-5.6,5-10.3,4.5
		c-15.7-2-30.7,7.1-35.6,24.2c-0.3,1.2-0.5,1.9-0.8,2.6c-0.8,1.6-3,3.8-4.4,4.5c-4.5,2.2-5.2,2.2-9.8,0.8c-5-1.4-13.3-3.8-23.2,0.1
		c-7.5,2.9-13.6,8.4-17.2,15.4c-3,5.7-10.9,7.5-16.4,3.7c-14-9.4-31.3-7-42.6,5.1c-5.2,5.6-13.1,4.5-16.9,0.2
		c-8.1-9.2-20.8-13.1-32.6-10c-10.5,2.8-11.1,8.2-19.7,6.3c-4-0.9-4.5-1.6-6.9-5.5c-2.3-3.5-5.6-8.8-11.9-12.6
		c-8.6-5.4-19-6.3-28.6-2.6c-6.8,2.5-13.5-2.2-14.8-7.6c-3.8-16.2-19.1-26.8-35.7-24.6c-6,0.7-12.3-4-12.5-10.7
		c-0.5-18.6-13.5-30.8-28.8-32.5c-6.4-0.8-11.1-7.4-9.5-13.3c4.3-16.1-4.4-32.6-20.1-38.4c-5.7-2.2-9-9.1-5.9-15.5
		c1.6-3.2,4.3-8.7,3.7-17c-1-23.2-19.9-22.6-18.8-34.7c0.4-3.6,1-4.3,2.9-6.8c3.1-3.8,8.2-10.2,8.1-21.3c0.2-15.5-8.8-20-10.5-25.5
		c-1.6-5.4,0.9-10.1,4.1-12.4c12.6-8.4,18.5-24.5,10.5-42c-1.3-2.8-1.6-3.5-1.1-6.8c0.5-3.2,2.8-7.1,6.9-8.6
		c15.8-5.8,24.5-22.4,20.2-38.4c-0.4-1.7-0.7-4.1,1.1-7.7c2.6-4.4,3.7-4.6,8.5-5.7c5.1-1.1,13.8-2.9,20.6-10.8
		c11.7-13.4,5.1-22.3,10.8-28.7c3.8-3.9,4.9-3.9,9.8-3.7c5.2,0.2,14,0.5,22.7-5.6c6.6-4.6,11.2-11.4,13-19.1
		c1.3-5.6,8.3-9.9,14.8-7.6c15.5,6,32.9-0.6,40.5-15.4c1.6-3.1,4.7-4.8,6.9-5.3c4.6-1,5.7-0.4,9.7,1.8c4.4,2.5,11.8,6.6,22.1,5.3
		c15.1-1.8,20.1-11.9,23.6-13.2c14.5-5.9,13.1,10.7,34.1,13.2c10.3,1.3,17.7-2.9,22.1-5.3c4-2.2,5.1-2.8,9.7-1.8
		c7.6,1.8,6.3,7.8,14.3,14.8c9.2,8,21.8,10.3,33.1,5.9c6.3-2.3,13.4,1.8,14.8,7.6c3.8,16.2,19.1,26.8,35.7,24.6
		c6.4-0.7,11.4,4.4,12.3,8.5c0.7,3.4-0.8,9.5,4.7,19.1c12.5,21.8,30.6,9.6,33.9,24.9c1,5.2-4.5,12.9,2.4,26.9
		c3.7,7.5,10.2,12.9,17.7,15.7c4.2,1.6,6.5,5.5,7,8.6c0.5,3.4,0.2,4-1.1,6.9c-2,4.4-5.4,11.8-2.9,22.6c3.5,15.2,13.3,17.4,16.5,22.6
		C649.8,367.7,650.2,370.9,650.1,372.1z"/>
</g>
</svg>
