<?xml version="1.0" encoding="utf-8"?>
<!-- Generator: Adobe Illustrator 15.0.0, SVG Export Plug-In . SVG Version: 6.00 Build 0)  -->
<!DOCTYPE svg PUBLIC "-//W3C//DTD SVG 1.1//EN" "http://www.w3.org/Graphics/SVG/1.1/DTD/svg11.dtd">
<svg version="1.1" xmlns="http://www.w3.org/2000/svg" xmlns:xlink="http://www.w3.org/1999/xlink" x="0px" y="0px"
	 width="1050.1px" height="280.5px" viewBox="0 0 1050.1 280.5" enable-background="new 0 0 1050.1 280.5" xml:space="preserve">
<g id="Layer_3">
</g>
<g id="Layer_6">
	<g>
		<g>
			<g>
				<path fill="#FF4504" d="M157.4,65H39.2v148.8h32.1V166c0.2,0.2,0.6,0.2,0.6,0.2c0-0.8-0.2-1.2-0.6-1.2l86.1-0.2
					c17,0,30.8-13.9,30.8-30.6V95.6C188.2,78.9,174.3,65,157.4,65z M155.7,132.5H71.3V97.1h84.4V132.5z M197.9,213.8h31.7v-120
					h-31.7V213.8z M197.9,86.3h31.7V54.5h-31.7V86.3z M364.7,169.7v-45.9c0-16.3-13.5-30-30-30H273c-16.3,0-30,13.7-30,30v60
					c0,16.3,13.7,30,30,30h91.7v-31.7h-90v-12.4H364.7z M274.7,125.4H333V142h-58.3V125.4z"/>
			</g>
		</g>
		<g>
			<path fill="#D8A361" d="M552.7,87.2V64.8H431.1c-14.9,0-26.9,12-26.9,26.9v95.2c0,14.9,12,26.9,26.9,26.9h121.7v-22.4H431.1
				c-2.5,0-4.6-2.1-4.6-4.5V91.7c0-2.5,2.1-4.6,4.6-4.6H552.7z"/>
			<path fill="#D8A361" d="M596.2,93.8c-14.9,0-26.9,12-26.9,26.9v66.2l0,0v26.9h22.3v-93.1c0-2.5,2.1-4.5,4.6-4.5h67V93.8H596.2z"
				/>
			<path fill="#D8A361" d="M771,93.8v93.1c0,2.5-2.1,4.5-4.5,4.5h-68.3c-2.5,0-4.5-2.1-4.5-4.5V93.8h-22.3v93.1
				c0,14.9,12,26.9,26.9,26.9h68.3c14.9,0,26.9-12,26.9-26.9V93.8H771z"/>
			<path fill="#D8A361" d="M929.9,120.7c0-14.9-12-26.9-26.9-26.9h-68.3c-14.9,0-26.9,12-26.9,26.9v17.4c0,14.9,12,26.9,26.9,26.9
				H903c2.5,0,4.6,2.1,4.6,4.5v17.4c0,2.5-2.1,4.5-4.6,4.5h-68.3c-2.5,0-4.5-2.1-4.5-4.5v-4.6h-22.4v4.6c0,14.9,12,26.9,26.9,26.9
				H903c14.9,0,26.9-12,26.9-26.9v-17.4c0-14.9-12-26.9-26.9-26.9h-68.3c-2.5,0-4.5-2.1-4.5-4.6v-17.4c0-2.5,2.1-4.5,4.5-4.5H903
				c2.5,0,4.6,2.1,4.6,4.5v4.6h22.3V120.7z"/>
			<path fill="#D8A361" d="M1018.3,116.1V93.8H969V54.5h-22.3v66.2l0,0v66.2c0,14.9,12,26.9,26.9,26.9h44.7v-22.4h-44.7
				c-2.5,0-4.6-2.1-4.6-4.5v-70.8H1018.3z"/>
		</g>
	</g>
</g>
<g id="Layer_1">
</g>
<g id="Layer_4">
</g>
</svg>
